<?xml version="1.0" encoding="utf-8"?>
<!-- Generator: Adobe Illustrator 24.1.2, SVG Export Plug-In . SVG Version: 6.00 Build 0)  -->
<svg version="1.1" id="Layer_1" xmlns="http://www.w3.org/2000/svg" xmlns:xlink="http://www.w3.org/1999/xlink" x="0px" y="0px"
	 viewBox="0 0 189.78 129.35" style="enable-background:new 0 0 189.78 129.35;" xml:space="preserve">
<style type="text/css">
	.st0{fill:#1A1A1A;}
</style>
<g>
	<path class="st0" d="M100,117.7c0-7.31,0-13.05,0-18.8c0-17.14,0.33-34.29-0.13-51.42c-0.24-8.91,2.69-16.26,7.95-22.99
		c9.47-12.09,22.31-19.07,37.25-24.5c2.93,26.95,5.8,53.33,8.73,80.21C131.06,84.8,112.04,95.05,100,117.7z"/>
	<path class="st0" d="M41.22,80.26c2.9-26.79,5.75-53.08,8.67-80.01c11.1,3.38,20.72,8.4,28.98,15.69
		c4.08,3.6,7.63,7.91,10.87,12.31c3.83,5.2,5.41,11.16,5.35,17.82C94.86,69.38,95,92.7,95,117.63
		C83.07,95.27,64.33,84.9,41.22,80.26z"/>
	<path class="st0" d="M86.78,129.22c-13.58-6.66-27.85-10.51-43.04-10.54c-15-0.03-29.33,3.35-43.74,9.39
		c1.13-10.72,2.16-20.78,3.27-30.83c1.83-16.55,3.7-33.09,5.56-49.64c0.84-7.51,1.12-7.74,9.69-7.6
		c-2.96,23.06-5.91,46.09-8.94,69.76C38.19,106.3,65.22,107.29,86.78,129.22z"/>
	<path class="st0" d="M103.2,129.35c9.45-11.02,21.73-17.3,35.58-19.14c13.4-1.78,27.09-1.44,41.42-2.07
		c-2.79-21.86-5.74-44.99-8.7-68.16c8.58-0.08,8.82,0.07,9.72,8.12c2.87,25.48,5.69,50.97,8.51,76.46c0.11,0.95,0.01,1.93,0.01,3.39
		c-14.31-5.98-28.8-9.37-43.98-9.26C130.75,118.79,116.65,122.66,103.2,129.35z"/>
	<path class="st0" d="M30.95,90.93c23.6,3.16,46.46,6.65,57.82,30.99C70.16,100,45.69,98.7,19.19,102.61
		c0.7-9.17,1.34-18.06,2.07-26.94c1.17-14.27,2.66-28.51,3.46-42.8c0.26-4.74,1.59-7.82,5.97-9.65c1.96-0.82,3.72-2.1,6.67-3.8
		C35.17,43.81,33.07,67.3,30.95,90.93z"/>
	<path class="st0" d="M159.56,90.93c-23.6,3.16-46.46,6.65-57.82,30.99c18.61-21.92,43.08-23.21,69.57-19.31
		c-0.7-9.17-1.34-18.06-2.07-26.94c-1.17-14.27-2.66-28.51-3.46-42.8c-0.26-4.74-1.59-7.82-5.97-9.65c-1.96-0.82-3.72-2.1-6.67-3.8
		C155.34,43.81,157.45,67.3,159.56,90.93z"/>
</g>
</svg>
